<svg width="393" height="747" viewBox="0 0 393 747" fill="none" xmlns="http://www.w3.org/2000/svg">
<path d="M0 124C0 124 95.7528 154.249 168.5 136C255.936 114.066 393 0 393 0V172C393 172 265.186 232.688 183.5 201C105.5 170.742 0 201 0 201V124Z" fill="#F44539" fill-opacity="0.11"/>
<path d="M0 150C0 150 95.7528 180.249 168.5 162C255.936 140.066 393 26 393 26V198C393 198 265.186 258.688 183.5 227C105.5 196.742 0 227 0 227V150Z" fill="#E4C3C2" fill-opacity="0.11"/>
<path d="M-1 260C-1 260 92.9516 322.271 167.5 330.5C321.5 347.5 392 432.5 392 432.5V531.5C392 531.5 271.983 395.5 182.5 395.5C17.8445 395.5 -1 347.5 -1 347.5V260Z" fill="#3939F4" fill-opacity="0.11"/>
<path d="M-1 289.5C-1 289.5 92.9516 351.771 167.5 360C321.5 377 392 462 392 462V564C392 564 271.983 425 182.5 425C15 425 -1 377 -1 377V289.5Z" fill="#F439AF" fill-opacity="0.11"/>
<path d="M-1 507C-1 507 86.4516 616.271 161 624.5C315 641.5 392.5 602.5 392.5 602.5V707C392.5 707 269.05 662.774 182 683.5C108.5 701 -1 683.5 -1 683.5V507Z" fill="#6139F4" fill-opacity="0.11"/>
<path d="M-0.5 547C-0.5 547 86.9516 656.271 161.5 664.5C315.5 681.5 393 642.5 393 642.5V747C393 747 269.55 702.774 182.5 723.5C109 741 -0.5 723.5 -0.5 723.5V547Z" fill="#DEA1A2" fill-opacity="0.11"/>
<path d="M-0.5 472C-0.5 472 86.9516 581.271 161.5 589.5C315.5 606.5 393 567.5 393 567.5V672C393 672 269.55 627.774 182.5 648.5C109 666 -0.5 648.5 -0.5 648.5V472Z" fill="#FF0051" fill-opacity="0.15"/>
</svg>
