<svg width="393" height="545" viewBox="0 0 393 545" fill="none" xmlns="http://www.w3.org/2000/svg">
<path d="M1 60C1 60 87.9516 79.7706 162.5 88C316.5 105 394.5 155.5 394.5 155.5L394 170.5C394 170.5 270.55 126.274 183.5 147C110 164.5 0.5 147 0.5 147L1 60Z" fill="#00FF66" fill-opacity="0.14"/>
<path d="M1 110.5C1 110.5 88.9516 155.271 163.5 163.5C317.5 180.5 394.5 206 394.5 206L394 221C394 221 270.55 176.774 183.5 197.5C110 215 0.5 197.5 0.5 197.5L1 110.5Z" fill="#BFFFB7" fill-opacity="0.23"/>
<path d="M0.5 0C0.5 0 88.4516 44.7706 163 52.9999C317 69.9999 394 95.5 394 95.5L393.5 110.5C393.5 110.5 270.05 66.2738 183 86.9999C109.5 104.5 0 86.9999 0 86.9999L0.5 0Z" fill="#C3F1D0" fill-opacity="0.15"/>
<path d="M1 321.5C1 321.5 123.753 401.749 196.5 383.5C283.936 361.566 394 140.5 394 140.5V282C394 282 289.839 373.259 211.5 412.5C134.314 451.164 1 480 1 480V400.75V321.5Z" fill="#E2FFA7" fill-opacity="0.3"/>
<path d="M1 396C1 396 76.7528 493.749 149.5 475.5C236.936 453.566 394 354.5 394 354.5V399.5C394 399.5 289.839 490.759 211.5 530C134.314 568.664 1 518 1 518V396Z" fill="#D6FFCD" fill-opacity="0.3"/>
</svg>
