<svg width="393" height="748" viewBox="0 0 393 748" fill="none" xmlns="http://www.w3.org/2000/svg">
<path d="M0 259C0 259 95.7528 289.249 168.5 271C255.936 249.066 393 135 393 135V219.5C393 219.5 288.839 310.759 210.5 350C133.314 388.664 0 417.5 0 417.5V259Z" fill="#A7E0FF" fill-opacity="0.3"/>
<path d="M0 650.248C0 650.248 177.253 555.998 250 537.748C337.436 515.814 393 537.748 393 537.748V679.748C393 679.748 288.839 640.508 210.5 679.748C133.314 718.412 0 747.248 0 747.248V650.248Z" fill="#A2E3DF" fill-opacity="0.3"/>
<path d="M0 620.248C0 620.248 177.253 525.998 250 507.748C337.436 485.814 393 507.748 393 507.748V649.748C393 649.748 288.839 610.508 210.5 649.748C133.314 688.412 0 717.248 0 717.248V620.248Z" fill="#8BBDF6" fill-opacity="0.3"/>
<path d="M0 585.248C0 585.248 177.253 490.998 250 472.748C337.436 450.814 393 472.748 393 472.748V614.748C393 614.748 288.839 575.508 210.5 614.748C133.314 653.412 0 682.248 0 682.248V585.248Z" fill="#AED1FF" fill-opacity="0.3"/>
<path d="M0 333.5C0 333.5 75.7528 351.749 148.5 333.5C235.936 311.566 393 212.5 393 212.5V257.5C393 257.5 288.839 348.759 210.5 388C133.314 426.664 0 455.5 0 455.5V333.5Z" fill="#999EFE" fill-opacity="0.3"/>
<path d="M0 143C0 143 95.7528 173.249 168.5 155C255.936 133.066 393 19 393 19V52C393 52 263.839 151.759 185.5 191C108.314 229.664 0 175.5 0 175.5V143Z" fill="#949494" fill-opacity="0.11"/>
<path d="M0 124C0 124 95.7528 154.249 168.5 136C255.936 114.066 393 0 393 0V33C393 33 263.839 132.759 185.5 172C108.314 210.664 0 156.5 0 156.5V124Z" fill="#4239F4" fill-opacity="0.11"/>
</svg>
