<svg width="22" height="25" viewBox="0 0 22 25" fill="none" xmlns="http://www.w3.org/2000/svg">
<path d="M0 10.6739C0 9.8266 0.358306 9.0188 0.986396 8.45008L9.33038 0.894867C10.5061 -0.169747 12.3075 -0.135158 13.4415 0.97381L21.0975 8.46067C21.6747 9.02508 22 9.79828 22 10.6056V22C22 23.6569 20.6569 25 19 25H16.3846C15.28 25 14.3846 24.1046 14.3846 23V17.2387C14.3846 16.6864 13.9369 16.2387 13.3846 16.2387H9.46154C8.90925 16.2387 8.46154 16.6864 8.46154 17.2387V23C8.46154 24.1046 7.56611 25 6.46154 25H3C1.34315 25 0 23.6569 0 22V10.6739Z" fill="white"/>
</svg>
