<svg width="393" height="622" viewBox="0 0 393 622" fill="none" xmlns="http://www.w3.org/2000/svg">
<path d="M-4 425C-4 425 91.7528 455.249 164.5 437C251.936 415.066 389 301 389 301V385.5C389 385.5 284.839 476.759 206.5 516C129.314 554.664 -4 583.5 -4 583.5V425Z" fill="#A8FE99" fill-opacity="0.3"/>
<path d="M0 167.248C0 167.248 177.253 72.9975 250 54.7484C337.436 32.8145 393 54.7484 393 54.7484V167.248C393 167.248 288.839 128.008 210.5 167.248C133.314 205.912 0 234.748 0 234.748V167.248Z" fill="#DEA2E3" fill-opacity="0.3"/>
<path d="M0 144.248C0 144.248 177.253 49.9975 250 31.7484C337.436 9.81449 393 31.7484 393 31.7484V144.248C393 144.248 288.839 105.008 210.5 144.248C133.314 182.912 0 211.748 0 211.748V144.248Z" fill="#8BE4F6" fill-opacity="0.3"/>
<path d="M0 122.248C0 122.248 177.253 27.9975 250 9.74841C337.436 -12.1855 393 9.74841 393 9.74841V122.248C393 122.248 288.839 83.0076 210.5 122.248C133.314 160.912 0 189.748 0 189.748V122.248Z" fill="#AED1FF" fill-opacity="0.3"/>
<path d="M-4 499.5C-4 499.5 71.7528 517.749 144.5 499.5C231.936 477.566 389 378.5 389 378.5V423.5C389 423.5 284.839 514.759 206.5 554C129.314 592.664 -4 621.5 -4 621.5V499.5Z" fill="#99C1FE" fill-opacity="0.3"/>
<path d="M0 301.5C0 301.5 98.7528 299.749 171.5 281.5C258.936 259.566 393 177.5 393 177.5V210.5C393 210.5 257.839 294.759 179.5 334C102.314 372.664 0 334 0 334V301.5Z" fill="#F4AC39" fill-opacity="0.11"/>
<path d="M0 321C0 321 98.7528 319.249 171.5 301C258.936 279.066 393 197 393 197V230C393 230 257.839 314.259 179.5 353.5C102.314 392.164 0 353.5 0 353.5V321Z" fill="#D7C6AA" fill-opacity="0.11"/>
</svg>
