<svg width="90" height="90" viewBox="0 0 90 90" fill="none" xmlns="http://www.w3.org/2000/svg">
<g clip-path="url(#clip0_26_10)">
<rect width="90" height="90" fill="white"/>
<rect width="90" height="90" fill="#007FFF"/>
<mask id="path-1-inside-1_26_10" fill="white">
<path d="M8 38C8 36.8954 8.89543 36 10 36H76C79.3137 36 82 38.6863 82 42V64C82 67.3137 79.3137 70 76 70H14C10.6863 70 8 67.3137 8 64V38Z"/>
</mask>
<path d="M8 38C8 36.8954 8.89543 36 10 36H76C79.3137 36 82 38.6863 82 42V64C82 67.3137 79.3137 70 76 70H14C10.6863 70 8 67.3137 8 64V38Z" fill="#E7F4FF" stroke="white" stroke-width="6" mask="url(#path-1-inside-1_26_10)"/>
<mask id="path-2-inside-2_26_10" fill="white">
<path d="M8 25C8 21.6863 10.6863 19 14 19H39C42.3137 19 45 21.6863 45 25V31C45 32.1046 44.1046 33 43 33H10C8.89543 33 8 32.1046 8 31V25Z"/>
</mask>
<path d="M8 25C8 21.6863 10.6863 19 14 19H39C42.3137 19 45 21.6863 45 25V31C45 32.1046 44.1046 33 43 33H10C8.89543 33 8 32.1046 8 31V25Z" fill="#007FFF" stroke="white" stroke-width="6" mask="url(#path-2-inside-2_26_10)"/>
<circle cx="31" cy="53" r="4" fill="#007FFF"/>
<circle cx="45" cy="53" r="4" fill="#007FFF"/>
<circle cx="59" cy="53" r="4" fill="#007FFF"/>
</g>
<defs>
<clipPath id="clip0_26_10">
<rect width="90" height="90" fill="white"/>
</clipPath>
</defs>
</svg>
