<svg width="120" height="120" viewBox="0 0 120 120" fill="none" xmlns="http://www.w3.org/2000/svg">
<rect width="120" height="120" fill="black"/>
<path d="M40.3596 39.75C40.1196 38.19 39.9996 36.6 39.9996 34.98C40.0596 33.36 40.3596 31.77 40.8996 30.21C41.5596 28.17 42.6396 26.37 44.1396 24.81C45.6396 23.25 47.3496 22.02 49.2696 21.12C51.3096 20.16 53.3796 19.5 55.4796 19.14C57.6396 18.72 59.7396 18.63 61.7796 18.87C63.8796 19.11 65.8896 19.65 67.8096 20.49C69.7896 21.27 71.6496 22.41 73.3896 23.91C75.2496 25.53 76.6296 27.42 77.5296 29.58C78.4896 31.68 78.9996 33.87 79.0596 36.15C79.1796 38.43 78.9096 40.71 78.2496 42.99C77.6496 45.21 76.7196 47.28 75.4596 49.2C75.4596 49.2 75.4296 49.26 75.3696 49.38C74.3496 50.76 73.1796 52.02 71.8596 53.16C70.5396 54.24 69.3096 55.41 68.1696 56.67C66.8496 58.05 66.0696 59.46 65.8296 60.9C65.5896 62.28 65.3496 63.84 65.1096 65.58C64.9296 67.26 64.4796 68.73 63.7596 69.99C63.0996 71.19 61.8396 71.76 59.9796 71.7C58.7196 71.64 57.7596 71.25 57.0996 70.53C56.4996 69.75 56.0496 68.85 55.7496 67.83C55.5096 66.75 55.4196 65.64 55.4796 64.5C55.5396 63.3 55.6296 62.25 55.7496 61.35C56.1096 59.25 56.7696 57.27 57.7296 55.41C58.6896 53.49 59.8596 51.69 61.2396 50.01C62.0196 49.11 62.7996 48.3 63.5796 47.58C64.3596 46.8 65.0796 45.99 65.7396 45.15C66.3996 44.31 66.9696 43.41 67.4496 42.45C67.9296 41.49 68.2596 40.38 68.4396 39.12C68.6196 37.98 68.5296 36.84 68.1696 35.7C67.8096 34.5 67.2696 33.45 66.5496 32.55C65.8296 31.59 64.9596 30.81 63.9396 30.21C62.9196 29.55 61.8096 29.19 60.6096 29.13C59.5296 29.07 58.3896 29.22 57.1896 29.58C55.9896 29.88 54.8796 30.39 53.8596 31.11C52.8396 31.77 51.9996 32.58 51.3396 33.54C50.7396 34.5 50.4696 35.58 50.5296 36.78C50.5896 37.5 50.7096 38.25 50.8896 39.03C51.1296 39.75 51.2796 40.47 51.3396 41.19C51.4596 41.85 51.4296 42.51 51.2496 43.17C51.1296 43.83 50.7396 44.46 50.0796 45.06C48.9996 46.08 47.9196 46.59 46.8396 46.59C45.7596 46.53 44.7696 46.17 43.8696 45.51C42.9696 44.85 42.1896 44.01 41.5296 42.99C40.9296 41.91 40.5396 40.83 40.3596 39.75ZM66.2796 84.66C66.2796 86.4 65.6196 87.96 64.2996 89.34C63.0396 90.66 61.5696 91.32 59.8896 91.32C58.2696 91.32 56.8296 90.66 55.5696 89.34C54.3096 87.9 53.6796 86.34 53.6796 84.66C53.6796 82.8 54.3096 81.24 55.5696 79.98C56.8296 78.6 58.2696 77.91 59.8896 77.91C61.5696 77.91 63.0396 78.6 64.2996 79.98C65.6196 81.3 66.2796 82.86 66.2796 84.66Z" fill="white"/>
</svg>
